<svg width="21" height="22" viewBox="0 0 21 22" fill="none" xmlns="http://www.w3.org/2000/svg">
<path d="M15.15 11.55C14.3667 10.85 13.6208 10.1667 12.9125 9.50001C12.2042 8.83335 11.5839 8.1838 11.0516 7.55136C10.5194 6.91893 10.0944 6.30677 9.77663 5.71489C9.45888 5.12299 9.3 4.55136 9.3 4.00001C9.3 3.13738 9.5935 2.41339 10.1805 1.82804C10.7675 1.24269 11.4935 0.950012 12.3585 0.950012C12.8528 0.950012 13.3458 1.08751 13.8375 1.36251C14.3292 1.63751 14.7667 2.00835 15.15 2.47501C15.5333 2.00835 15.9708 1.63751 16.4625 1.36251C16.9542 1.08751 17.4472 0.950012 17.9415 0.950012C18.8065 0.950012 19.5325 1.24269 20.1195 1.82804C20.7065 2.41339 21 3.13738 21 4.00001C21 4.55136 20.8411 5.12299 20.5234 5.71489C20.2056 6.30677 19.7806 6.91893 19.2484 7.55136C18.7161 8.1838 18.0944 8.83477 17.3831 9.50429C16.6718 10.1738 15.9275 10.8557 15.15 11.55ZM15.15 9.47501C16.25 8.47501 17.25 7.48335 18.15 6.50001C19.05 5.51668 19.5 4.68335 19.5 4.00001C19.5 3.54296 19.3554 3.17036 19.0661 2.88221C18.7768 2.59408 18.4028 2.45001 17.944 2.45001C17.6647 2.45001 17.3875 2.51668 17.1125 2.65001C16.8375 2.78335 16.5583 3.03335 16.275 3.40001L15.15 4.77501L14.025 3.40001C13.7417 3.03335 13.4625 2.78335 13.1875 2.65001C12.9125 2.51668 12.6354 2.45001 12.3561 2.45001C11.8972 2.45001 11.5232 2.59408 11.2339 2.88221C10.9446 3.17036 10.8 3.54296 10.8 4.00001C10.8 4.68335 11.25 5.51668 12.15 6.50001C13.05 7.48335 14.05 8.47501 15.15 9.47501ZM13.15 21.45L5.375 19.225V20.65H0V10.8H7.725L14.1 13.2C14.55 13.3667 14.9292 13.6375 15.2375 14.0125C15.5458 14.3875 15.7 14.925 15.7 15.625H18.55C19.25 15.625 19.8333 15.875 20.3 16.375C20.7667 16.875 21 17.55 21 18.4V19.05L13.15 21.45ZM1.5 19.15H3.85V12.3H1.5V19.15ZM13.05 19.9L19.45 17.95C19.35 17.6333 19.225 17.4167 19.075 17.3C18.925 17.1833 18.75 17.125 18.55 17.125H13.375C12.875 17.125 12.4125 17.0917 11.9875 17.025C11.5625 16.9583 11.1583 16.8667 10.775 16.75L8.75 16.125L9.3 14.675L11.125 15.275C11.5417 15.4083 11.9375 15.5 12.3125 15.55C12.6875 15.6 13.2833 15.625 14.1 15.625C14.1 15.425 14.0625 15.2292 13.9875 15.0375C13.9125 14.8458 13.7833 14.7083 13.6 14.625L7.475 12.3H5.375V17.65L13.05 19.9Z" fill="#867070"/>
</svg>
