<svg width="142" height="29" viewBox="0 0 142 29" fill="none" xmlns="http://www.w3.org/2000/svg">
<path d="M15.5697 22.0388C15.3833 22.3146 15.1691 22.5213 14.9268 22.6593C14.6845 22.8169 14.4516 22.9252 14.2279 22.9842C13.9671 23.063 13.6875 23.0925 13.3894 23.0728C13.2776 23.0728 13.1564 23.0433 13.026 22.9842C12.9142 22.9448 12.793 22.8857 12.6626 22.8069C12.5321 22.7479 12.4203 22.6494 12.3272 22.5115C12.0663 21.5268 11.8333 20.5717 11.6283 19.646C11.4234 18.7203 11.2463 17.8931 11.0972 17.1645C10.9109 16.3177 10.7525 15.5199 10.622 14.7715C10.1189 14.7519 9.36417 14.7519 8.35788 14.7715C7.3702 14.7715 6.29868 14.8307 5.1433 14.9488C4.78924 16.1306 4.5097 17.125 4.30472 17.9326C4.09974 18.74 3.95066 19.4097 3.85747 19.9414C3.7643 20.4732 3.72703 20.9064 3.74567 21.2413C3.7643 21.5958 3.8202 21.901 3.91339 22.1571C3.6525 22.4327 3.39159 22.6298 3.1307 22.7479C2.88845 22.8857 2.66483 22.9743 2.45984 23.0138C2.21758 23.0728 1.98464 23.0925 1.76102 23.0728C1.46286 23.0335 1.22061 22.9743 1.03425 22.8955C0.8479 22.8365 0.708137 22.7282 0.614961 22.5706C0.540421 22.4327 0.512467 22.2259 0.531103 21.9502C0.568373 21.6745 0.642914 21.3102 0.754725 20.8572C0.866535 20.4634 1.07152 19.7641 1.36968 18.7598C1.68649 17.7357 2.04055 16.5737 2.43189 15.2739C1.72375 15.3328 1.17401 15.2935 0.782678 15.1556C0.409974 15.0178 0.149082 14.6436 0 14.0331C0.298164 13.9346 0.614961 13.846 0.950394 13.7672C1.30446 13.6687 1.6399 13.5801 1.95669 13.5013C2.31077 13.4225 2.67414 13.3536 3.04685 13.2945C3.43819 11.9947 3.83884 10.7145 4.24881 9.4541C4.65879 8.19366 5.04082 7.06122 5.39488 6.05679L7.01615 1.47783C7.05341 1.35967 7.24908 1.23165 7.60314 1.0938C7.95722 0.955932 8.34856 0.847611 8.77716 0.768833C9.20577 0.67036 9.61574 0.621124 10.0071 0.621124C10.3984 0.621124 10.65 0.70975 10.7618 0.886999C10.8177 1.30058 10.8923 1.81265 10.9854 2.42317C11.0972 3.0337 11.1997 3.62453 11.2929 4.19568C11.4047 4.86528 11.5352 5.55459 11.6843 6.26359C11.852 7.24832 12.029 8.34136 12.2154 9.54272C12.4203 10.7441 12.6719 12.0242 12.9701 13.3832C13.2682 14.742 13.6223 16.1502 14.0323 17.6075C14.4423 19.065 14.9547 20.542 15.5697 22.0388ZM7.79881 12.7923C8.39514 12.7726 8.88897 12.7628 9.28032 12.7628C9.67164 12.7628 10.0071 12.7726 10.2866 12.7923L10.2028 12.3492C10.0909 11.6205 9.96982 10.8426 9.83936 10.0154C9.72756 9.18823 9.60643 8.3709 9.47599 7.56343C9.36417 6.75595 9.25237 5.98787 9.14055 5.25917C9.02874 4.53048 8.93556 3.8904 8.86102 3.33896C8.67467 3.85102 8.46036 4.4714 8.21811 5.20009C7.97585 5.90909 7.71496 6.68702 7.43542 7.53389C7.1559 8.38074 6.86706 9.267 6.5689 10.1926C6.28936 11.1183 6.00984 12.0341 5.73032 12.94C6.06574 12.9006 6.40118 12.8711 6.73661 12.8514C7.07205 12.8317 7.42611 12.812 7.79881 12.7923ZM23.117 18.9961C22.8001 19.5672 22.3715 20.0595 21.8311 20.4732C21.3093 20.8867 20.6385 21.0935 19.8185 21.0935C19.3153 21.0935 18.8402 20.9655 18.3929 20.7095C17.9643 20.4535 17.5916 20.099 17.2748 19.646C16.958 19.193 16.7064 18.6513 16.5201 18.0212C16.3524 17.391 16.2685 16.7017 16.2685 15.9533C16.2685 14.8503 16.4083 13.8657 16.6878 12.9991C16.986 12.1325 17.3679 11.4039 17.8338 10.813C18.3184 10.2222 18.8495 9.76921 19.4271 9.4541C20.0235 9.13899 20.6199 8.98143 21.2161 8.98143C21.5143 8.98143 21.7846 9.04051 22.0267 9.15869C22.269 9.27685 22.4833 9.43441 22.6697 9.63135C22.8561 9.80859 23.0144 10.0055 23.1449 10.2222C23.294 10.4388 23.4244 10.6358 23.5362 10.813C23.5362 10.36 23.5269 9.95631 23.5083 9.60181C23.4897 9.22761 23.4523 8.9322 23.3965 8.71556C23.6574 8.79433 23.8809 8.87311 24.0673 8.95189C24.2722 9.03067 24.44 9.10944 24.5705 9.18823C24.7195 9.267 24.85 9.35562 24.9618 9.4541C25.2227 9.71013 25.3811 9.976 25.4371 10.2517C25.4929 10.5274 25.4836 10.9213 25.409 11.4334C25.3718 11.6894 25.3252 12.1621 25.2693 12.8514C25.2134 13.5407 25.1574 14.2989 25.1016 15.1261C25.0456 15.9533 24.9897 16.7903 24.9339 17.6372C24.8965 18.4841 24.8686 19.193 24.85 19.7641C24.8128 20.4732 24.8033 21.2018 24.8221 21.9502C24.8407 22.6986 24.8686 23.4175 24.906 24.1068C24.9618 24.796 25.027 25.446 25.1016 26.0566C25.1948 26.6867 25.2972 27.2382 25.409 27.7108C25.2972 27.8684 25.1481 27.9767 24.9618 28.0359C24.794 28.1147 24.6263 28.1638 24.4587 28.1835C24.2536 28.223 24.058 28.223 23.8716 28.1835C23.3312 28.1245 22.9958 27.9177 22.8654 27.5632C22.7349 27.2283 22.6697 26.7753 22.6697 26.2042C22.6697 26.0073 22.679 25.6627 22.6977 25.1702C22.7349 24.6779 22.7722 24.0969 22.8094 23.4273C22.8654 22.7774 22.9119 22.0685 22.9492 21.3004C23.0051 20.5322 23.061 19.7641 23.117 18.9961ZM20.5453 19.4982C20.7688 19.4982 21.0391 19.3899 21.3559 19.1733C21.6726 18.9369 21.9709 18.612 22.2504 18.1985C22.5299 17.7848 22.7722 17.2925 22.9772 16.7214C23.1821 16.1306 23.2846 15.4806 23.2846 14.7715C23.2846 14.0035 23.2102 13.3438 23.061 12.7923C22.9119 12.2212 22.7256 11.7584 22.502 11.4038C22.2783 11.0494 22.0455 10.7933 21.8032 10.6358C21.5609 10.4585 21.3466 10.3699 21.1603 10.3699C20.7316 10.3699 20.359 10.5077 20.0421 10.7835C19.744 11.0592 19.4924 11.4235 19.2874 11.8765C19.1011 12.3098 18.952 12.812 18.8402 13.3832C18.747 13.9543 18.6911 14.5353 18.6725 15.1261C18.6725 15.6776 18.7097 16.2192 18.7842 16.7508C18.8774 17.263 19.0079 17.7258 19.1757 18.1394C19.3432 18.5529 19.539 18.8878 19.7626 19.1438C20.0049 19.3801 20.2658 19.4982 20.5453 19.4982ZM33.5712 9.60181C33.5712 9.38517 33.6924 9.22761 33.9346 9.12915C34.1955 9.01097 34.4657 8.95189 34.7453 8.95189C35.0434 8.95189 35.3136 9.01097 35.5559 9.12915C35.7981 9.22761 35.91 9.36547 35.8913 9.54272C35.8727 9.68059 35.8541 9.95631 35.8355 10.3699C35.8168 10.7638 35.7888 11.2364 35.7516 11.7879C35.733 12.3393 35.7049 12.9302 35.6677 13.5604C35.6304 14.1906 35.5932 14.811 35.5559 15.4215C35.5372 16.0124 35.5186 16.5637 35.5 17.0759C35.5 17.5879 35.5 17.9817 35.5 18.2575C35.5 18.612 35.5186 18.9369 35.5559 19.2325C35.5932 19.4884 35.6398 19.7445 35.6956 20.0005C35.7516 20.2368 35.8355 20.4042 35.9472 20.5027C35.7981 20.5618 35.6398 20.6012 35.4721 20.6208C35.3229 20.6406 35.1831 20.6603 35.0527 20.68C34.9036 20.6996 34.7546 20.7095 34.6055 20.7095C34.2886 20.7095 34.0184 20.6406 33.7949 20.5027C33.5899 20.3649 33.4875 20.0793 33.4875 19.646C33.4875 19.4294 33.4968 19.1142 33.5154 18.7007C33.5526 18.2871 33.5899 17.844 33.6271 17.3713C33.4968 17.7848 33.3383 18.2083 33.152 18.6415C32.9657 19.0749 32.7327 19.4589 32.4531 19.7938C32.1922 20.1285 31.8941 20.4042 31.5587 20.6208C31.2232 20.8376 30.8412 20.9459 30.4126 20.9459C29.9281 20.9459 29.4809 20.8376 29.0708 20.6208C28.6796 20.4042 28.3348 20.099 28.0367 19.7051C27.7384 19.2915 27.5149 18.7893 27.3657 18.1985C27.2166 17.6075 27.1608 16.9281 27.198 16.1601C27.198 15.5693 27.2073 14.939 27.226 14.2694C27.2447 13.6983 27.2726 13.0385 27.3098 12.2901C27.3471 11.5417 27.4124 10.7638 27.5056 9.95631C27.5242 9.87753 27.6545 9.77905 27.8968 9.66089C28.1391 9.54272 28.4093 9.44425 28.7075 9.36547C29.0056 9.28669 29.2945 9.25715 29.574 9.27685C29.8535 9.29654 30.0585 9.41471 30.189 9.63135C30.0958 9.98585 30.0027 10.4093 29.9095 10.9016C29.8162 11.3743 29.7325 11.8667 29.6579 12.3787C29.5833 12.8908 29.5274 13.393 29.4902 13.8854C29.4528 14.3777 29.4342 14.8307 29.4342 15.2442C29.4342 15.6184 29.4528 16.0321 29.4902 16.4851C29.5274 16.9183 29.5926 17.332 29.6858 17.7258C29.7976 18.1 29.9467 18.4151 30.1331 18.6712C30.338 18.9271 30.5989 19.0552 30.9158 19.0552C31.2698 19.0552 31.5773 18.8976 31.8382 18.5825C32.1177 18.2477 32.3507 17.8243 32.537 17.3121C32.7234 16.8002 32.8818 16.2192 33.0122 15.5693C33.1427 14.8997 33.2452 14.2399 33.3197 13.5899C33.4129 12.94 33.4687 12.3196 33.4875 11.7288C33.5247 11.1183 33.5526 10.6062 33.5712 10.1926V9.60181ZM45.9264 19.0847C45.9636 19.2226 46.0196 19.3506 46.094 19.4687C46.15 19.5672 46.2245 19.6657 46.3177 19.7641C46.4295 19.8429 46.56 19.8922 46.709 19.9119C46.5786 20.1876 46.4481 20.3747 46.3177 20.4732C46.2431 20.5322 46.1779 20.5717 46.1221 20.5913C45.9543 20.6505 45.7027 20.68 45.3673 20.68C45.0319 20.68 44.7058 20.5717 44.3889 20.3551C44.2771 20.2565 44.1747 20.1088 44.0815 19.9119C43.9883 19.7543 43.9044 19.5377 43.8299 19.262C43.7739 18.9666 43.7274 18.5924 43.6902 18.1394C43.4293 18.7302 43.131 19.2028 42.7957 19.5574C42.4789 19.8922 42.162 20.1383 41.8453 20.2959C41.4912 20.5125 41.1278 20.6406 40.7551 20.68C40.2893 20.7193 39.842 20.6406 39.4134 20.4436C39.0034 20.227 38.6493 19.9119 38.3512 19.4982C38.0717 19.065 37.8573 18.5431 37.7083 17.9326C37.5592 17.322 37.5125 16.6327 37.5685 15.8647C37.6244 15.0571 37.7734 14.3383 38.0157 13.7081C38.258 13.0779 38.5468 12.5166 38.8823 12.0242C39.2178 11.5319 39.5718 11.1183 39.9445 10.7835C40.3172 10.429 40.6713 10.1434 41.0067 9.92677C41.3608 9.69043 41.6589 9.52303 41.9012 9.42456C42.162 9.30639 42.3297 9.23746 42.4043 9.21777C42.6092 9.15869 42.7863 9.13899 42.9354 9.15869C43.0845 9.17838 43.2149 9.267 43.3268 9.42456C43.364 9.48364 43.4106 9.55257 43.4665 9.63135C43.5037 9.71013 43.5504 9.81844 43.6063 9.95631C43.6622 10.0745 43.7088 10.2123 43.746 10.3699C43.2988 10.5865 42.8794 10.8327 42.4882 11.1084C42.0969 11.3645 41.7335 11.6796 41.398 12.0538C41.0812 12.428 40.8017 12.8809 40.5595 13.4127C40.3172 13.9444 40.1309 14.5944 40.0003 15.3625C39.814 16.3275 39.8607 17.1054 40.1402 17.6962C40.4383 18.2871 40.839 18.5332 41.3421 18.4348C41.6403 18.3363 41.9291 18.1492 42.2086 17.8735C42.4509 17.6372 42.7025 17.2827 42.9633 16.81C43.243 16.3373 43.5037 15.6874 43.746 14.8602C43.8392 13.6786 43.9138 12.7529 43.9697 12.0833C44.0443 11.394 44.1094 10.8721 44.1654 10.5176C44.2399 10.104 44.2957 9.82829 44.3331 9.69043C44.3889 9.59195 44.5008 9.50333 44.6684 9.42456C44.8362 9.32608 45.0225 9.24731 45.2276 9.18823C45.4325 9.12915 45.6189 9.09959 45.7866 9.09959C45.9543 9.0799 46.0661 9.0799 46.1221 9.09959C46.1593 9.11929 46.1779 9.36547 46.1779 9.83813C46.1779 10.2911 46.1593 10.8721 46.1221 11.5811C46.1035 12.2704 46.0754 13.0286 46.0382 13.8558C46.0008 14.6632 45.9636 15.4313 45.9264 16.1601C45.9077 16.8888 45.8891 17.5289 45.8705 18.0802C45.8705 18.612 45.8891 18.9469 45.9264 19.0847ZM55.9055 11.522C55.9055 11.7977 55.8309 12.0833 55.6819 12.3787C55.5514 12.6544 55.3837 12.9203 55.1787 13.1764C54.9738 13.4324 54.7408 13.6589 54.4799 13.8558C54.2376 14.0331 54.0047 14.1414 53.781 14.1808C53.9302 13.5702 53.9768 13.0976 53.9209 12.7628C53.8649 12.428 53.7717 12.1818 53.6413 12.0242C53.4922 11.847 53.3059 11.7485 53.0823 11.7288C52.7469 11.7288 52.4207 11.9356 52.104 12.3492C51.8057 12.7431 51.5448 13.2354 51.3213 13.8263C51.0976 14.3974 50.9205 15.0178 50.7901 15.6874C50.6596 16.3373 50.5945 16.9281 50.5945 17.4599C50.5759 17.8341 50.5852 18.1985 50.6224 18.5529C50.641 18.8484 50.6691 19.1537 50.7063 19.4687C50.7622 19.7838 50.8367 20.03 50.9298 20.2073C50.8181 20.3058 50.6317 20.4239 50.3708 20.5618C50.1287 20.6996 49.8678 20.7883 49.5882 20.8276C49.3273 20.8671 49.085 20.8178 48.8613 20.68C48.6564 20.542 48.5446 20.2466 48.526 19.7938C48.4887 19.3604 48.4608 18.8779 48.4422 18.3461C48.4422 17.7946 48.4422 17.2532 48.4422 16.7214C48.4608 16.1699 48.4794 15.6284 48.498 15.0966C48.5167 14.5648 48.5446 14.0724 48.5818 13.6195C48.6192 12.7529 48.6378 12.0833 48.6378 11.6106C48.6378 11.138 48.6285 10.685 48.6099 10.2517C48.6099 10.1729 48.731 10.0646 48.9733 9.92677C49.2342 9.76921 49.5137 9.63135 49.8118 9.51318C50.1287 9.39502 50.4175 9.32608 50.6784 9.30639C50.9393 9.28669 51.0697 9.34577 51.0697 9.48364C51.0697 9.70028 51.0418 10.1336 50.9858 10.7835C50.9486 11.4137 50.8926 12.0735 50.8181 12.7628C50.9486 12.3886 51.1163 11.9848 51.3213 11.5516C51.5448 11.1183 51.7964 10.7145 52.0759 10.3404C52.3554 9.96615 52.6723 9.66089 53.0264 9.42456C53.3804 9.16853 53.7717 9.04051 54.2004 9.04051C54.5358 9.04051 54.806 9.14884 55.011 9.36547C55.2347 9.58211 55.4117 9.82829 55.5421 10.104C55.6726 10.3797 55.7658 10.6555 55.8216 10.9312C55.8776 11.2069 55.9055 11.4039 55.9055 11.522ZM60.5456 20.9162C59.2411 20.9162 58.2349 20.4535 57.5267 19.5279C56.8186 18.6022 56.4645 17.391 56.4645 15.8941C56.4645 14.8503 56.6043 13.8755 56.8838 12.9696C57.1819 12.0439 57.5734 11.2463 58.0578 10.5767C58.5424 9.90707 59.1014 9.38517 59.735 9.01097C60.3872 8.61708 61.0675 8.42013 61.7756 8.42013C62.465 8.42013 63.0521 8.68602 63.5365 9.21777C64.0211 9.72982 64.2634 10.4684 64.2634 11.4334C64.2634 12.0636 64.1329 12.6938 63.872 13.3241C63.6111 13.9346 63.2663 14.486 62.8378 14.9785C62.4278 15.4511 61.9712 15.8352 61.468 16.1306C60.965 16.426 60.4804 16.5737 60.0145 16.5737C59.7164 16.5737 59.4648 16.5343 59.2599 16.4554C59.0548 16.3766 58.8684 16.2585 58.7007 16.1009C58.7567 17.2235 58.9897 18.0114 59.3996 18.4644C59.8096 18.8976 60.3407 19.1142 60.9929 19.1142C61.4401 19.1142 61.8314 19.0157 62.1669 18.8188C62.521 18.6219 62.8191 18.3954 63.0614 18.1394C63.3037 17.8833 63.4993 17.6274 63.6484 17.3713C63.7974 17.0956 63.9001 16.8888 63.9559 16.7508C64.0118 16.6327 64.105 16.5737 64.2354 16.5737C64.3845 16.5737 64.4591 16.6919 64.4591 16.9281C64.4591 17.1449 64.3845 17.4796 64.2354 17.9326C64.105 18.3658 63.8813 18.809 63.5646 19.262C63.2477 19.6953 62.8378 20.0793 62.3346 20.4141C61.8502 20.7489 61.2538 20.9162 60.5456 20.9162ZM61.8314 9.69043C61.7196 9.69043 61.5054 9.81844 61.1885 10.0745C60.8904 10.3108 60.5643 10.6653 60.2102 11.138C59.8747 11.6106 59.558 12.1818 59.2599 12.8514C58.9802 13.5013 58.8033 14.2399 58.7288 15.0671C59.8468 14.7914 60.732 14.358 61.3842 13.7672C62.0365 13.1764 62.3625 12.3098 62.3625 11.1675C62.3625 10.5964 62.2974 10.2123 62.1669 10.0154C62.0365 9.79875 61.9246 9.69043 61.8314 9.69043ZM69.7141 1.44829C69.6769 2.15729 69.6116 2.97461 69.5184 3.90025C69.4253 4.82589 69.3228 5.82047 69.211 6.88397C69.1178 7.94746 69.0154 9.06021 68.9035 10.2222C68.8103 11.3842 68.7264 12.556 68.652 13.7376C68.5774 14.9193 68.5401 15.8843 68.5401 16.6327C68.5588 17.3615 68.6053 17.9621 68.6799 18.4348C68.7545 18.9074 68.8569 19.2816 68.9873 19.5574C69.1178 19.8331 69.2856 20.099 69.4905 20.3551C69.2482 20.5125 69.0247 20.6307 68.8196 20.7095C68.6146 20.7883 68.4376 20.8474 68.2886 20.8867C68.1021 20.9459 67.9345 20.9754 67.7854 20.9754C67.5059 20.9754 67.2636 20.8376 67.0587 20.5618C66.8537 20.2664 66.686 19.8922 66.5555 19.4392C66.4437 18.9862 66.3505 18.4841 66.2759 17.9326C66.22 17.3615 66.1921 16.8002 66.1921 16.2487C66.1921 15.6579 66.2107 14.9785 66.248 14.2103C66.2853 13.4225 66.3226 12.5954 66.3598 11.7288C66.4158 10.8426 66.4716 9.92677 66.5275 8.98143C66.5835 8.01641 66.63 7.06122 66.6672 6.11589C66.7046 5.38719 66.7418 4.72743 66.7792 4.13658C66.8164 3.62453 66.8443 3.16171 66.863 2.74812C66.8816 2.31485 66.8723 2.05883 66.835 1.98004C66.9469 1.82249 67.0866 1.70432 67.2543 1.62555C67.422 1.54676 67.5805 1.47783 67.7295 1.41875C67.9158 1.35967 68.1021 1.31042 68.2886 1.27104H68.8196C68.9687 1.27104 69.1272 1.29073 69.2949 1.33012C69.4626 1.34983 69.6023 1.38921 69.7141 1.44829ZM74.6618 1.44829C74.6245 2.15729 74.5593 2.97461 74.4662 3.90025C74.373 4.82589 74.2704 5.82047 74.1586 6.88397C74.0654 7.94746 73.963 9.06021 73.8512 10.2222C73.758 11.3842 73.6742 12.556 73.5996 13.7376C73.525 14.9193 73.4878 15.8843 73.4878 16.6327C73.5064 17.3615 73.5529 17.9621 73.6275 18.4348C73.7021 18.9074 73.8045 19.2816 73.9351 19.5574C74.0654 19.8331 74.2332 20.099 74.4381 20.3551C74.196 20.5125 73.9723 20.6307 73.7673 20.7095C73.5624 20.7883 73.3853 20.8474 73.2362 20.8867C73.0499 20.9459 72.8821 20.9754 72.733 20.9754C72.4535 20.9754 72.2112 20.8376 72.0063 20.5618C71.8013 20.2664 71.6336 19.8922 71.5031 19.4392C71.3913 18.9862 71.2981 18.4841 71.2235 17.9326C71.1677 17.3615 71.1397 16.8002 71.1397 16.2487C71.1397 15.6579 71.1584 14.9785 71.1956 14.2103C71.2328 13.4225 71.2702 12.5954 71.3074 11.7288C71.3634 10.8426 71.4193 9.92677 71.4751 8.98143C71.5311 8.01641 71.5776 7.06122 71.615 6.11589C71.6522 5.38719 71.6895 4.72743 71.7267 4.13658C71.764 3.62453 71.792 3.16171 71.8106 2.74812C71.8292 2.31485 71.8199 2.05883 71.7827 1.98004C71.8945 1.82249 72.0342 1.70432 72.2019 1.62555C72.3696 1.54676 72.5281 1.47783 72.6772 1.41875C72.8635 1.35967 73.0499 1.31042 73.2362 1.27104H73.7673C73.9163 1.27104 74.0747 1.29073 74.2425 1.33012C74.4102 1.34983 74.55 1.38921 74.6618 1.44829ZM84.0539 19.0847C84.0911 19.2226 84.1471 19.3506 84.2217 19.4687C84.2775 19.5672 84.3521 19.6657 84.4452 19.7641C84.557 19.8429 84.6875 19.8922 84.8366 19.9119C84.7061 20.1876 84.5757 20.3747 84.4452 20.4732C84.3707 20.5322 84.3055 20.5717 84.2496 20.5913C84.0818 20.6505 83.8302 20.68 83.4949 20.68C83.1594 20.68 82.8333 20.5717 82.5166 20.3551C82.4046 20.2565 82.3022 20.1088 82.209 19.9119C82.1158 19.7543 82.032 19.5377 81.9574 19.262C81.9016 18.9666 81.8549 18.5924 81.8177 18.1394C81.5568 18.7302 81.2587 19.2028 80.9232 19.5574C80.6064 19.8922 80.2896 20.1383 79.9728 20.2959C79.6187 20.5125 79.2553 20.6406 78.8827 20.68C78.4168 20.7193 77.9696 20.6406 77.5409 20.4436C77.1309 20.227 76.7768 19.9119 76.4787 19.4982C76.1992 19.065 75.9849 18.5431 75.8358 17.9326C75.6867 17.322 75.6402 16.6327 75.696 15.8647C75.7519 15.0571 75.9011 14.3383 76.1432 13.7081C76.3855 13.0779 76.6743 12.5166 77.0098 12.0242C77.3453 11.5319 77.6993 11.1183 78.072 10.7835C78.4447 10.429 78.7988 10.1434 79.1343 9.92677C79.4883 9.69043 79.7864 9.52303 80.0287 9.42456C80.2896 9.30639 80.4574 9.23746 80.5318 9.21777C80.7369 9.15869 80.9139 9.13899 81.0629 9.15869C81.212 9.17838 81.3424 9.267 81.4543 9.42456C81.4916 9.48364 81.5382 9.55257 81.594 9.63135C81.6314 9.71013 81.6779 9.81844 81.7338 9.95631C81.7898 10.0745 81.8363 10.2123 81.8735 10.3699C81.4263 10.5865 81.0071 10.8327 80.6157 11.1084C80.2244 11.3645 79.861 11.6796 79.5255 12.0538C79.2088 12.428 78.9293 12.8809 78.687 13.4127C78.4447 13.9444 78.2584 14.5944 78.128 15.3625C77.9415 16.3275 77.9882 17.1054 78.2677 17.6962C78.5658 18.2871 78.9665 18.5332 79.4697 18.4348C79.7678 18.3363 80.0566 18.1492 80.3362 17.8735C80.5785 17.6372 80.8301 17.2827 81.091 16.81C81.3705 16.3373 81.6314 15.6874 81.8735 14.8602C81.9667 13.6786 82.0413 12.7529 82.0972 12.0833C82.1718 11.394 82.2369 10.8721 82.2929 10.5176C82.3674 10.104 82.4234 9.82829 82.4606 9.69043C82.5166 9.59195 82.6283 9.50333 82.7961 9.42456C82.9638 9.32608 83.1501 9.24731 83.3551 9.18823C83.56 9.12915 83.7464 9.09959 83.9141 9.09959C84.0818 9.0799 84.1936 9.0799 84.2496 9.09959C84.2868 9.11929 84.3055 9.36547 84.3055 9.83813C84.3055 10.2911 84.2868 10.8721 84.2496 11.5811C84.231 12.2704 84.2029 13.0286 84.1657 13.8558C84.1285 14.6632 84.0911 15.4313 84.0539 16.1601C84.0353 16.8888 84.0166 17.5289 83.998 18.0802C83.998 18.612 84.0166 18.9469 84.0539 19.0847ZM107.422 22.0388C107.236 22.3146 107.022 22.5213 106.78 22.6593C106.537 22.8169 106.304 22.9252 106.081 22.9842C105.82 23.063 105.54 23.0925 105.242 23.0728C105.13 23.0728 105.009 23.0433 104.879 22.9842C104.767 22.9448 104.646 22.8857 104.515 22.8069C104.385 22.7479 104.273 22.6494 104.18 22.5115C103.919 21.5268 103.686 20.5717 103.481 19.646C103.276 18.7203 103.099 17.8931 102.95 17.1645C102.764 16.3177 102.605 15.5199 102.475 14.7715C101.972 14.7519 101.217 14.7519 100.211 14.7715C99.2229 14.7715 98.1514 14.8307 96.9961 14.9488C96.642 16.1306 96.3624 17.125 96.1574 17.9326C95.9525 18.74 95.8034 19.4097 95.7102 19.9414C95.617 20.4732 95.5798 20.9064 95.5984 21.2413C95.617 21.5958 95.673 21.901 95.7661 22.1571C95.5052 22.4327 95.2443 22.6298 94.9834 22.7479C94.7411 22.8857 94.5176 22.9743 94.3126 23.0138C94.0703 23.0728 93.8373 23.0925 93.6138 23.0728C93.3155 23.0335 93.0734 22.9743 92.887 22.8955C92.7006 22.8365 92.5609 22.7282 92.4677 22.5706C92.3931 22.4327 92.3652 22.2259 92.3838 21.9502C92.4211 21.6745 92.4956 21.3102 92.6074 20.8572C92.7193 20.4634 92.9242 19.7641 93.2224 18.7598C93.5392 17.7357 93.8933 16.5737 94.2846 15.2739C93.5764 15.3328 93.0267 15.2935 92.6354 15.1556C92.2628 15.0178 92.0019 14.6436 91.8527 14.0331C92.1508 13.9346 92.4677 13.846 92.8032 13.7672C93.1572 13.6687 93.4926 13.5801 93.8094 13.5013C94.1635 13.4225 94.5269 13.3536 94.8996 13.2945C95.2908 11.9947 95.6916 10.7145 96.1016 9.4541C96.5115 8.19366 96.8935 7.06122 97.2476 6.05679L98.8688 1.47783C98.9062 1.35967 99.1018 1.23165 99.4559 1.0938C99.8099 0.955932 100.201 0.847611 100.63 0.768833C101.059 0.67036 101.469 0.621124 101.86 0.621124C102.251 0.621124 102.503 0.70975 102.614 0.886999C102.67 1.30058 102.745 1.81265 102.838 2.42317C102.95 3.0337 103.052 3.62453 103.146 4.19568C103.258 4.86528 103.388 5.55459 103.537 6.26359C103.705 7.24832 103.882 8.34136 104.068 9.54272C104.273 10.7441 104.525 12.0242 104.823 13.3832C105.121 14.742 105.475 16.1502 105.885 17.6075C106.295 19.065 106.807 20.542 107.422 22.0388ZM99.6515 12.7923C100.248 12.7726 100.742 12.7628 101.133 12.7628C101.524 12.7628 101.86 12.7726 102.139 12.7923L102.055 12.3492C101.944 11.6205 101.822 10.8426 101.692 10.0154C101.58 9.18823 101.459 8.3709 101.329 7.56343C101.217 6.75595 101.105 5.98787 100.993 5.25917C100.881 4.53048 100.788 3.8904 100.714 3.33896C100.527 3.85102 100.313 4.4714 100.071 5.20009C99.8286 5.90909 99.5676 6.68702 99.2881 7.53389C99.0086 8.38074 98.7198 9.267 98.4216 10.1926C98.142 11.1183 97.8625 12.0341 97.583 12.94C97.9185 12.9006 98.254 12.8711 98.5893 12.8514C98.9248 12.8317 99.2788 12.812 99.6515 12.7923ZM118.967 7.44526C118.762 7.40587 118.482 7.36648 118.128 7.3271C117.793 7.28771 117.448 7.25817 117.094 7.23848C116.684 7.21877 116.246 7.20892 115.78 7.20892C115.314 7.16954 114.727 7.16954 114.019 7.20892C113.33 7.22862 112.603 7.23848 111.839 7.23848C111.82 7.75053 111.783 8.27243 111.727 8.80418C111.69 9.33593 111.653 9.85784 111.615 10.3699C111.522 11.3152 111.438 12.2803 111.364 13.265C111.308 14.2497 111.28 15.1852 111.28 16.0714C111.28 16.9578 111.327 17.7652 111.42 18.4939C111.531 19.2028 111.727 19.7641 112.007 20.1778C111.783 20.3551 111.541 20.4929 111.28 20.5913C111.019 20.6701 110.786 20.7291 110.581 20.7686C110.339 20.8276 110.097 20.8572 109.854 20.8572C109.631 20.8572 109.444 20.7784 109.295 20.6208C109.146 20.4634 109.062 20.1876 109.044 19.7938C109.006 19.124 108.997 18.4544 109.016 17.7848C109.053 17.0956 109.09 16.3766 109.128 15.6284C109.183 14.88 109.239 14.0823 109.295 13.2354C109.351 12.3689 109.407 11.4235 109.463 10.3994C109.519 9.33593 109.547 8.30197 109.547 7.29756C108.839 7.31725 108.242 7.3271 107.758 7.3271C107.273 7.3271 107.003 7.31725 106.947 7.29756C106.891 7.25817 106.826 7.16954 106.752 7.03168C106.677 6.91351 106.584 6.73625 106.472 6.49992C106.342 6.26359 106.183 5.92879 105.997 5.49551C106.351 5.49551 106.742 5.49551 107.171 5.49551C107.581 5.49551 107.963 5.48566 108.317 5.46597C108.727 5.44627 109.137 5.42658 109.547 5.40689C109.528 5.09176 109.519 4.75697 109.519 4.40247C109.5 4.12674 109.491 3.82148 109.491 3.48668C109.491 3.13217 109.482 2.80722 109.463 2.5118C109.463 2.39363 109.593 2.25576 109.854 2.09821C110.134 1.92096 110.432 1.7634 110.749 1.62555C111.066 1.48768 111.354 1.39906 111.615 1.35967C111.895 1.32027 112.035 1.38921 112.035 1.56647C112.035 1.74371 112.025 2.17699 112.007 2.86629C112.007 3.53591 111.988 4.35322 111.951 5.31825C112.137 5.31825 112.277 5.30841 112.37 5.28871C113.358 5.24933 114.15 5.20994 114.746 5.17055C115.361 5.11146 115.864 5.10161 116.255 5.14101C116.647 5.1804 116.992 5.27887 117.29 5.43643C117.588 5.59399 117.923 5.85001 118.296 6.20451C118.426 6.32268 118.538 6.45069 118.631 6.58856C118.725 6.70671 118.799 6.84458 118.855 7.00213C118.93 7.14 118.967 7.28771 118.967 7.44526ZM118.016 20.9162C116.712 20.9162 115.706 20.4535 114.998 19.5279C114.289 18.6022 113.935 17.391 113.935 15.8941C113.935 14.8503 114.075 13.8755 114.355 12.9696C114.653 12.0439 115.044 11.2463 115.529 10.5767C116.013 9.90707 116.572 9.38517 117.206 9.01097C117.858 8.61708 118.538 8.42013 119.246 8.42013C119.936 8.42013 120.523 8.68602 121.007 9.21777C121.492 9.72982 121.734 10.4684 121.734 11.4334C121.734 12.0636 121.604 12.6938 121.343 13.3241C121.082 13.9346 120.737 14.486 120.309 14.9785C119.899 15.4511 119.442 15.8352 118.939 16.1306C118.436 16.426 117.951 16.5737 117.485 16.5737C117.187 16.5737 116.936 16.5343 116.731 16.4554C116.526 16.3766 116.339 16.2585 116.172 16.1009C116.227 17.2235 116.46 18.0114 116.87 18.4644C117.28 18.8976 117.811 19.1142 118.464 19.1142C118.911 19.1142 119.302 19.0157 119.638 18.8188C119.992 18.6219 120.29 18.3954 120.532 18.1394C120.774 17.8833 120.97 17.6274 121.119 17.3713C121.268 17.0956 121.371 16.8888 121.427 16.7508C121.483 16.6327 121.576 16.5737 121.706 16.5737C121.855 16.5737 121.93 16.6919 121.93 16.9281C121.93 17.1449 121.855 17.4796 121.706 17.9326C121.576 18.3658 121.352 18.809 121.035 19.262C120.719 19.6953 120.309 20.0793 119.805 20.4141C119.321 20.7489 118.725 20.9162 118.016 20.9162ZM119.302 9.69043C119.191 9.69043 118.976 9.81844 118.659 10.0745C118.361 10.3108 118.035 10.6653 117.681 11.138C117.346 11.6106 117.029 12.1818 116.731 12.8514C116.451 13.5013 116.274 14.2399 116.2 15.0671C117.318 14.7914 118.203 14.358 118.855 13.7672C119.507 13.1764 119.833 12.3098 119.833 11.1675C119.833 10.5964 119.768 10.2123 119.638 10.0154C119.507 9.79875 119.396 9.69043 119.302 9.69043ZM127.185 1.44829C127.148 2.15729 127.083 2.97461 126.989 3.90025C126.896 4.82589 126.794 5.82047 126.682 6.88397C126.589 7.94746 126.486 9.06021 126.374 10.2222C126.281 11.3842 126.197 12.556 126.123 13.7376C126.048 14.9193 126.011 15.8843 126.011 16.6327C126.03 17.3615 126.076 17.9621 126.151 18.4348C126.225 18.9074 126.328 19.2816 126.458 19.5574C126.589 19.8331 126.756 20.099 126.961 20.3551C126.719 20.5125 126.495 20.6307 126.291 20.7095C126.086 20.7883 125.909 20.8474 125.759 20.8867C125.573 20.9459 125.405 20.9754 125.256 20.9754C124.977 20.9754 124.735 20.8376 124.529 20.5618C124.324 20.2664 124.157 19.8922 124.026 19.4392C123.914 18.9862 123.821 18.4841 123.747 17.9326C123.691 17.3615 123.663 16.8002 123.663 16.2487C123.663 15.6579 123.682 14.9785 123.719 14.2103C123.756 13.4225 123.793 12.5954 123.831 11.7288C123.887 10.8426 123.943 9.92677 123.998 8.98143C124.054 8.01641 124.101 7.06122 124.138 6.11589C124.175 5.38719 124.213 4.72743 124.25 4.13658C124.287 3.62453 124.315 3.16171 124.334 2.74812C124.352 2.31485 124.343 2.05883 124.306 1.98004C124.418 1.82249 124.557 1.70432 124.725 1.62555C124.893 1.54676 125.051 1.47783 125.2 1.41875C125.387 1.35967 125.573 1.31042 125.759 1.27104H126.291C126.44 1.27104 126.598 1.29073 126.766 1.33012C126.933 1.34983 127.073 1.38921 127.185 1.44829ZM128.667 10.1336C128.667 10.0154 128.816 9.88738 129.114 9.74951C129.412 9.61166 129.738 9.50333 130.092 9.42456C130.465 9.32608 130.8 9.27685 131.098 9.27685C131.415 9.25715 131.574 9.32608 131.574 9.48364C131.574 9.77905 131.555 10.2025 131.518 10.7539C131.48 11.2857 131.434 11.8568 131.378 12.4674C131.322 13.0582 131.266 13.6589 131.21 14.2694C131.154 14.8602 131.117 15.3625 131.098 15.776C131.061 16.2094 131.024 16.682 130.987 17.194C130.949 17.6274 130.921 18.1099 130.903 18.6415C130.884 19.1733 130.884 19.715 130.903 20.2664C130.903 20.3649 130.81 20.4634 130.623 20.5618C130.437 20.6603 130.232 20.7291 130.008 20.7686C129.785 20.8276 129.57 20.8572 129.365 20.8572C129.16 20.8572 129.049 20.8178 129.03 20.7391C128.993 20.6603 128.955 20.5224 128.918 20.3254C128.881 20.1285 128.844 19.8528 128.806 19.4982C128.769 19.124 128.741 18.6513 128.722 18.0802C128.704 17.4894 128.713 16.7805 128.75 15.9533C128.825 14.3186 128.834 13.0582 128.778 12.1719C128.722 11.266 128.685 10.5865 128.667 10.1336ZM130.623 4.25476C130.996 4.25476 131.35 4.37292 131.685 4.60925C132.021 4.84558 132.189 5.16071 132.189 5.55459C132.189 5.85001 132.114 6.13558 131.965 6.4113C131.834 6.68702 131.667 6.9332 131.462 7.14984C131.257 7.36648 131.024 7.54374 130.763 7.68159C130.502 7.79976 130.26 7.85884 130.036 7.85884C129.738 7.85884 129.496 7.80961 129.309 7.71114C129.123 7.59297 128.974 7.46495 128.862 7.3271C128.769 7.16954 128.704 7.00213 128.667 6.82489C128.629 6.64763 128.611 6.48023 128.611 6.32268C128.611 6.12573 128.639 5.90909 128.694 5.67276C128.75 5.41673 128.853 5.19025 129.002 4.9933C129.151 4.77666 129.356 4.5994 129.617 4.46155C129.878 4.32368 130.213 4.25476 130.623 4.25476ZM129.924 7.00213C130.036 7.00213 130.157 6.96274 130.288 6.88397C130.437 6.7855 130.567 6.67718 130.679 6.55902C130.81 6.44084 130.912 6.31284 130.987 6.17497C131.08 6.0371 131.126 5.91894 131.126 5.82047C131.126 5.66291 131.052 5.58413 130.903 5.58413C130.81 5.58413 130.688 5.62353 130.539 5.7023C130.409 5.78107 130.278 5.87955 130.148 5.99771C130.018 6.09619 129.906 6.21435 129.812 6.35222C129.738 6.47038 129.701 6.58856 129.701 6.70672C129.701 6.90366 129.775 7.00213 129.924 7.00213ZM137.248 20.9162C135.944 20.9162 134.937 20.4535 134.229 19.5279C133.521 18.6022 133.167 17.391 133.167 15.8941C133.167 14.8503 133.307 13.8755 133.586 12.9696C133.884 12.0439 134.276 11.2463 134.76 10.5767C135.245 9.90707 135.804 9.38517 136.437 9.01097C137.09 8.61708 137.77 8.42013 138.478 8.42013C139.167 8.42013 139.754 8.68602 140.239 9.21777C140.723 9.72982 140.966 10.4684 140.966 11.4334C140.966 12.0636 140.835 12.6938 140.574 13.3241C140.313 13.9346 139.969 14.486 139.54 14.9785C139.13 15.4511 138.674 15.8352 138.17 16.1306C137.667 16.426 137.183 16.5737 136.717 16.5737C136.419 16.5737 136.167 16.5343 135.962 16.4554C135.757 16.3766 135.571 16.2585 135.403 16.1009C135.459 17.2235 135.692 18.0114 136.102 18.4644C136.512 18.8976 137.043 19.1142 137.695 19.1142C138.143 19.1142 138.534 19.0157 138.869 18.8188C139.223 18.6219 139.521 18.3954 139.764 18.1394C140.006 17.8833 140.202 17.6274 140.351 17.3713C140.5 17.0956 140.602 16.8888 140.658 16.7508C140.714 16.6327 140.807 16.5737 140.938 16.5737C141.087 16.5737 141.161 16.6919 141.161 16.9281C141.161 17.1449 141.087 17.4796 140.938 17.9326C140.807 18.3658 140.584 18.809 140.267 19.262C139.95 19.6953 139.54 20.0793 139.037 20.4141C138.552 20.7489 137.956 20.9162 137.248 20.9162ZM138.534 9.69043C138.422 9.69043 138.208 9.81844 137.891 10.0745C137.593 10.3108 137.267 10.6653 136.913 11.138C136.577 11.6106 136.26 12.1818 135.962 12.8514C135.683 13.5013 135.506 14.2399 135.431 15.0671C136.549 14.7914 137.434 14.358 138.087 13.7672C138.739 13.1764 139.065 12.3098 139.065 11.1675C139.065 10.5964 139 10.2123 138.869 10.0154C138.739 9.79875 138.627 9.69043 138.534 9.69043ZM137.5 2.60042C137.555 2.54134 137.658 2.49209 137.807 2.45271C137.956 2.41332 138.114 2.39363 138.282 2.39363C138.45 2.37393 138.599 2.37393 138.729 2.39363C138.879 2.39363 138.972 2.41332 139.009 2.45271C139.14 2.62996 139.335 2.87614 139.596 3.19125C139.82 3.46698 140.118 3.84117 140.491 4.31384C140.882 4.76681 141.385 5.34781 142 6.05679C141.925 6.17497 141.786 6.27343 141.581 6.35222C141.488 6.39161 141.385 6.42115 141.273 6.44084C141.161 6.46053 141.04 6.47038 140.91 6.47038C140.798 6.49007 140.658 6.49992 140.491 6.49992C140.341 6.49992 140.183 6.49992 140.015 6.49992C139.773 6.16512 139.549 5.85986 139.344 5.58413C139.14 5.28871 138.962 5.03269 138.813 4.81604C138.627 4.57971 138.459 4.36307 138.31 4.16612C138.124 4.34338 137.928 4.55017 137.723 4.7865C137.537 5.00315 137.313 5.25917 137.052 5.55459C136.81 5.83032 136.53 6.13558 136.214 6.47038C136.009 6.47038 135.822 6.46053 135.655 6.44084C135.506 6.40145 135.356 6.36207 135.207 6.32268C135.04 6.28328 134.891 6.24389 134.76 6.20451C134.63 6.18481 134.527 6.15527 134.453 6.11589C134.285 6.0371 134.211 5.99771 134.229 5.99771C135.198 4.95391 135.981 4.12674 136.577 3.51622C136.913 3.16171 137.22 2.85645 137.5 2.60042Z" fill="#867070"/>
</svg>
