<svg width="22" height="23" viewBox="0 0 22 23" fill="none" xmlns="http://www.w3.org/2000/svg">
<path d="M10.725 22.2423C10.4912 22.2423 10.2953 22.1552 10.1372 21.981C9.97906 21.8069 9.9 21.5911 9.9 21.3337C9.9 21.0762 9.97906 20.8622 10.1372 20.6916C10.2953 20.5209 10.4912 20.4356 10.725 20.4356H19.25V11.2821C19.25 10.1178 19.0208 8.99874 18.5625 7.9248C18.1042 6.85087 17.49 5.9024 16.72 5.07938C15.95 4.25637 15.07 3.59896 14.08 3.10716C13.09 2.61535 12.0633 2.36945 11 2.36945C9.93667 2.36945 8.91 2.61535 7.92 3.10716C6.93 3.59896 6.05 4.25637 5.28 5.07938C4.51 5.9024 3.89583 6.85087 3.4375 7.9248C2.97917 8.99874 2.75 10.1178 2.75 11.2821V18.0268C2.75 18.1974 2.69729 18.3405 2.59187 18.4559C2.48646 18.5713 2.35583 18.629 2.2 18.629C1.595 18.629 1.07708 18.3932 0.64625 17.9214C0.215417 17.4497 0 16.8826 0 16.2202V13.8114C0 13.3497 0.100833 12.9432 0.3025 12.5919C0.504167 12.2406 0.77 11.9546 1.1 11.7338L1.1825 10.1379C1.3475 8.67254 1.72792 7.34769 2.32375 6.16335C2.91958 4.97901 3.66208 3.97534 4.55125 3.15232C5.44042 2.32931 6.43958 1.69197 7.54875 1.24032C8.65792 0.788663 9.80833 0.562836 11 0.562836C12.21 0.562836 13.3696 0.788663 14.4787 1.24032C15.5879 1.69197 16.5825 2.33433 17.4625 3.16738C18.3425 4.00043 19.0804 5.00411 19.6762 6.17841C20.2721 7.35271 20.6525 8.66251 20.8175 10.1078L20.9 11.6735C21.23 11.8542 21.4958 12.1202 21.6975 12.4715C21.8992 12.8227 22 13.2092 22 13.6307V16.4009C22 16.8425 21.8992 17.2339 21.6975 17.5752C21.4958 17.9164 21.23 18.1774 20.9 18.358V20.4356C20.9 20.9325 20.7384 21.3578 20.4153 21.7116C20.0922 22.0654 19.7037 22.2423 19.25 22.2423H10.725ZM7.7 13.5103C7.48 13.5103 7.2875 13.4199 7.1225 13.2393C6.9575 13.0586 6.875 12.8428 6.875 12.5919C6.875 12.341 6.9575 12.1302 7.1225 11.9596C7.2875 11.789 7.48458 11.7036 7.71375 11.7036C7.94292 11.7036 8.13542 11.7902 8.29125 11.9633C8.44708 12.1365 8.525 12.351 8.525 12.607C8.525 12.8478 8.44594 13.0586 8.28781 13.2393C8.12969 13.4199 7.93375 13.5103 7.7 13.5103ZM14.3 13.5103C14.08 13.5103 13.8875 13.4199 13.7225 13.2393C13.5575 13.0586 13.475 12.8428 13.475 12.5919C13.475 12.341 13.5575 12.1302 13.7225 11.9596C13.8875 11.789 14.0846 11.7036 14.3137 11.7036C14.5429 11.7036 14.7354 11.7902 14.8912 11.9633C15.0471 12.1365 15.125 12.351 15.125 12.607C15.125 12.8478 15.0459 13.0586 14.8878 13.2393C14.7297 13.4199 14.5337 13.5103 14.3 13.5103ZM4.4275 11.9445C4.35417 10.7602 4.50542 9.68626 4.88125 8.72273C5.25708 7.7592 5.76125 6.9412 6.39375 6.26874C7.02625 5.59627 7.755 5.07938 8.58 4.71806C9.405 4.35673 10.23 4.17607 11.055 4.17607C12.7233 4.17607 14.1258 4.75319 15.2625 5.90741C16.3992 7.06164 17.0958 8.50192 17.3525 10.2282C15.6292 10.2082 14.1121 9.70131 12.8012 8.70767C11.4904 7.71403 10.4775 6.42431 9.7625 4.8385C9.46917 6.46445 8.85042 7.90473 7.90625 9.15933C6.96208 10.4139 5.8025 11.3423 4.4275 11.9445Z" fill="#867070"/>
</svg>
